# xmcd
#
# Track frame offsets:
#	150
#	13689
#	29719
#	51191
#	68539
#	86432
#	107561
#	129188
#	149005
#	165567
#
# Disc length: 2477 seconds
#
# Revision: 0
# Processed by: cddbd v1.5.2PL0 Copyright (c) Steve Scherf et al.
# Submitted via: EasyCDDAExtractor 11.0.3.1
#
DISCID=8009ab0a
DTITLE=Carter's Chord - Carter's Chord (Advance)
DYEAR=2008
DGENRE=Country
TTITLE0=Boys Like You (Give Love A Bad Name)
TTITLE1=Young Love
TTITLE2=Summer, Early 60's
TTITLE3=When We Get There
TTITLE4=Dear Baltimore
TTITLE5=Different Breed
TTITLE6=Over You
TTITLE7=Song Of Blue
TTITLE8=Can't Seem To Let You Go
TTITLE9=Goodbye Song
EXTD=
EXTT0=
EXTT1=
EXTT2=
EXTT3=
EXTT4=
EXTT5=
EXTT6=
EXTT7=
EXTT8=
EXTT9=
PLAYORDER=
